<?xml version="1.0" encoding="UTF-8"?>
<svg width="708px" height="158px" viewBox="0 0 708 158" version="1.1" xmlns="http://www.w3.org/2000/svg" xmlns:xlink="http://www.w3.org/1999/xlink">
    <!-- Generator: Sketch 53.2 (72643) - https://sketchapp.com -->
    <title>_icon_stick_pen_desktop</title>
    <desc>Created with Sketch.</desc>
    <g id="Page-1" stroke="none" stroke-width="1" fill="none" fill-rule="evenodd">
        <g id="Asset-16" transform="translate(-1.000000, 0.000000)">
            <rect id="Rectangle" fill="#F1F1F1" fill-rule="nonzero" x="349.94" y="95.44" width="326.62" height="11.81"></rect>
            <rect id="Rectangle" fill="#E5E5E5" fill-rule="nonzero" x="349.94" y="98.23" width="326.62" height="6.23"></rect>
            <rect id="Rectangle" fill="#CBCBCB" fill-rule="nonzero" x="349.94" y="98.23" width="2.2" height="6.23"></rect>
            <rect id="Rectangle" fill="#F1F1F1" fill-rule="nonzero" x="274.07" y="93.68" width="76.03" height="15.43"></rect>
            <rect id="Rectangle" fill="#E5E5E5" fill-rule="nonzero" x="274.07" y="105.76" width="76.03" height="3.35"></rect>
            <rect id="Rectangle" fill="#E5E5E5" fill-rule="nonzero" x="274.07" y="93.68" width="76.03" height="3.35"></rect>
            <path d="M241.93,99 L241.93,103.7 L237.23,103.7 C235.932131,103.7 234.88,102.647869 234.88,101.35 C234.885478,100.054407 235.934407,99.0054783 237.23,99 L241.93,99 Z" id="Path" fill="#FCD875" fill-rule="nonzero"></path>
            <polygon id="Path" fill="#E5E5E5" fill-rule="nonzero" points="274.07 109.11 251.34 105.97 251.34 96.81 274.07 93.68"></polygon>
            <polygon id="Path" fill="#666666" fill-rule="nonzero" points="251.34 96.62 251.34 106.03 239.58 103.68 239.58 98.97"></polygon>
            <path d="M237.23,99 L237.23,103.7 C235.932131,103.7 234.88,102.647869 234.88,101.35 C234.885478,100.054407 235.934407,99.0054783 237.23,99 L237.23,99 Z" id="Path" fill="#4D4D4D" fill-rule="nonzero"></path>
            <polygon id="Path" fill="#FD6E02" fill-rule="nonzero" points="317.8 0 317.8 5.02 252.55 8.27 183.95 8.27 194.34 6.3 227.46 0"></polygon>
            <polygon id="Path" fill="#D85903" fill-rule="nonzero" points="317.8 2.62 317.8 5.02 252.55 8.27 183.95 8.27 194.34 6.3 227.07 2.93"></polygon>
            <path d="M227.81,5.38 L227.81,32.62 L227.61,32.62 L171.17,31.19 L155.4,29.76 C154.210771,28.8315605 153.306392,27.5876052 152.79,26.17 C151.97786,24.1220138 151.636114,21.9177576 151.79,19.72 C152.15,12.19 156.09,10.4 156.09,10.4 L171.17,9 L227.81,5.38 Z" id="Path" fill="#FD6E02" fill-rule="nonzero"></path>
            <rect id="Rectangle" fill="#FD6E02" fill-rule="nonzero" x="227.46" y="4.3" width="25.1" height="29.4"></rect>
            <path d="M156.2,23.3 L226.38,24.02 L226.38,14 L156,16 C154.04215,16.1012179 152.507385,17.7195374 152.51,19.68 L152.51,19.68 C152.537426,21.6951465 154.184698,23.3111694 156.2,23.3 L156.2,23.3 Z" id="Path" fill="#F98C41" fill-rule="nonzero"></path>
            <path d="M227.81,28.32 L227.81,32.32 L227.61,32.62 L171.17,31.19 L155.4,29.76 C154.210771,28.8315605 153.306392,27.5876052 152.79,26.17 C152.79,26.17 186.94,29 227.81,28.32 Z" id="Path" fill="#D85903" fill-rule="nonzero"></path>
            <rect id="Rectangle" fill="#F98C41" fill-rule="nonzero" x="227.81" y="16.85" width="24.74" height="9.32"></rect>
            <rect id="Rectangle" fill="#D85903" fill-rule="nonzero" x="229.97" y="29.04" width="22.23" height="4.3"></rect>
            <path d="M709,22.76 C709.005324,25.3289241 707.98718,27.7941647 706.170672,29.6106723 C704.354165,31.4271798 701.888924,32.4453242 699.32,32.44 L377,32.4400208 L377,13.09 L699.29,13.09 C701.864002,13.0712959 704.338578,14.0827998 706.162473,15.8991815 C707.986368,17.7155633 709.008079,20.1859427 709,22.76 L709,22.76 Z" id="Path" fill="#FFFFFF" fill-rule="nonzero"></path>
            <path d="M707.18,28.36 C706.882123,28.8038351 706.547622,29.2219611 706.18,29.61 C704.36252,31.4247194 701.898352,32.4427623 699.33,32.44 L377,32.4400056 L377,28.36 L707.18,28.36 Z" id="Path" fill="#F1F1F1" fill-rule="nonzero"></path>
            <path d="M709,22.76 C709.001651,24.767617 708.375811,26.7255539 707.21,28.36 L377,28.36 L377,18.18 L707.8,18.18 C708.568314,19.5856446 708.980338,21.1582021 709,22.76 L709,22.76 Z" id="Path" fill="#F7F6F5" fill-rule="nonzero"></path>
            <circle id="Oval" fill="#EFFAFF" fill-rule="nonzero" cx="50.82" cy="73.84" r="48.5"></circle>
            <g id="Group" transform="translate(23.000000, 19.000000)" fill-rule="nonzero">
                <polygon id="Path" fill="#333333" points="86.32 42.65 55.7 68.7 17.88 30.88 44.06 0.38"></polygon>
                <ellipse id="Oval" fill="#666666" transform="translate(36.756392, 49.819786) rotate(-45.000000) translate(-36.756392, -49.819786) " cx="36.7563916" cy="49.8197857" rx="17.28" ry="26.66"></ellipse>
                <path d="M48.26,62 L39.85,70.4 L15.72,46 L24,37.72 C24,37.72 32,29.2 44.41,41.57 C57,54.17 48.26,62 48.26,62 Z" id="Path" fill="#D8A119"></path>
                <path d="M43.7,42.53 C52.46,51.29 50.36,58.53 48.7,61.59 L47.7,62.59 L39.25,71 L15,46.49 L20.34,41.3 L23.22,38.51 C25.47,36.61 33.25,32.08 43.7,42.53 Z" id="Path" fill="#F7B737"></path>
                <path d="M33.61,52.37 C35.3249368,54.0347968 36.8847106,55.8523014 38.27,57.8 C38.9207644,58.6959886 39.4992541,59.6423041 40,60.63 C43.6,67.82 39.27,70.98 39.27,70.98 L14,84 L13.61,84.2 L11.76,82.35 L9.53,75.79 L2.53,73.09 L0.83,71.7 L0.88,71.62 L15.12,46.62 C15.7525556,45.8748513 16.6479154,45.4021014 17.62,45.3 C18.6235772,45.1004785 19.6489618,45.0332402 20.67,45.1 C22.91,45.21 25.73,46.1 29.11,48.53 C30.0079585,49.1755259 30.8724144,49.866423 31.7,50.6 C32.32,51.13 33,51.72 33.61,52.37 Z" id="Path" fill="#FCCC54"></path>
                <path d="M8.79,84.76 L8.6,84.76 L8.52,84.76 C8.19992303,84.8798333 7.86172264,84.9440913 7.52,84.95 L7.04,84.95 C5.22404346,84.7657145 3.55189228,83.8794027 2.38,82.48 C1.18672295,81.2137694 0.478482392,79.5671101 0.38,77.83 C0.375387325,77.7467305 0.375387325,77.6632695 0.38,77.58 L0.38,77.32 C0.38,77.32 0.38,77.16 0.47,76.91 C0.47,76.91 0.47,76.8 0.47,76.74 C0.91,75.2 2.6,71.49 8.15,76.96 C14.82,83.55 10,84.6 8.79,84.76 Z" id="Path" fill="#FCCC54"></path>
                <path d="M29.11,48.52 L8,74.1 L5.6,71.7 L20.6,45.09 C22.91,45.2 25.73,46.09 29.11,48.52 Z" id="Path" fill="#FCD875"></path>
                <path d="M33.61,52.37 C35.3249368,54.0347968 36.8847106,55.8523014 38.27,57.8 L10.51,78 L9.51,75.51 L31.73,50.51 C32.32,51.13 33,51.72 33.61,52.37 Z" id="Path" fill="#FCD875"></path>
                <path d="M17.62,45.29 C12.81,54 3.17,71.34 3,71.7 L0.89,71.62 L15.13,46.62 C15.7584275,45.8733814 16.6500111,45.3971541 17.62,45.29 L17.62,45.29 Z" id="Path" fill="#F9CB64"></path>
                <path d="M40,60.63 C43.6,67.82 39.27,70.98 39.27,70.98 L14,84 L11.57,79 L40,60.63 Z" id="Path" fill="#FCD875"></path>
                <path d="M13.08,77 C13.4758379,77.5846718 13.8364773,78.192416 14.16,78.82 C16.44,83.26 13.56,84.22 13.56,84.22 L8.1,84.93 C8.69,84.83 13.1,83.93 9.8,79.5 C9.30688677,78.8285595 8.75829505,78.1996861 8.16,77.62 C7.61661485,77.0704567 7.03877841,76.5560821 6.43,76.08 C5.65536702,75.4382269 4.75151115,74.9709504 3.78,74.71 C1.08,74.14 0.38,77.14 0.35,77.25 L0.35,73.65 C0.35,73.65 0.24,69.92 3.84,70.17 C4.22826956,70.2042541 4.61296322,70.2711574 4.99,70.37 C6.5161605,70.8516034 7.9305725,71.63361 9.15,72.67 C10.6681105,73.9097904 11.9926993,75.3691974 13.08,77 L13.08,77 Z" id="Path" fill="#FCCC54"></path>
                <path d="M7.85,77.33 C2.6,72.15 0.59,75.78 0.35,77.33 L0.35,77.44 C0.69,76.44 2.18,73.5 6.13,76.53 C6.69547297,76.9838237 7.22999643,77.4749171 7.73,78 C8.29374478,78.5535216 8.81520565,79.1485218 9.29,79.78 C11.89,83.32 9.29,84.6 8.07,84.94 L8.21,84.94 C9.38,84.78 14.17,83.54 7.85,77.33 Z" id="Path" fill="#D8A119"></path>
                <path d="M13.92,78.31 L10.2,80.11 C9.6144949,79.2086645 8.94483025,78.364887 8.2,77.59 C7.65661485,77.0404567 7.07877841,76.5260821 6.47,76.05 L9.19,72.64 C11.0705244,74.2542877 12.6690604,76.1705031 13.92,78.31 L13.92,78.31 Z" id="Path" fill="#F7B737"></path>
                <ellipse id="Oval" fill="#FCD875" transform="translate(3.164984, 80.281487) rotate(-30.850000) translate(-3.164984, -80.281487) " cx="3.16498397" cy="80.2814866" rx="1.59" ry="3.07"></ellipse>
                <path d="M6.66,79.33 C8.11,80.7 8.85,82.79 8.34,84.08 C8.25246052,84.3045974 8.11971705,84.5088181 7.95,84.68 C7.8282549,84.8033632 7.68617984,84.9048454 7.53,84.98 L7.05,84.98 C7.57178548,84.8596866 7.99712388,84.483281 8.18,83.98 C8.67,82.75 7.95,80.74 6.54,79.41 C4.85,77.82 2.91,76.3 1.23,77.14 C0.892400692,77.2981092 0.594969075,77.5305845 0.36,77.82 C0.355387325,77.7367305 0.355387325,77.6532695 0.36,77.57 C0.5939889,77.3307679 0.868147388,77.1344569 1.17,76.99 C2.92,76.15 4.93,77.69 6.66,79.33 Z" id="Path" fill="#D8A119"></path>
                <path d="M5,70.34 L3.79,74.68 C1.09,74.11 0.39,77.11 0.36,77.22 L0.36,73.62 C0.36,73.62 0.25,69.89 3.85,70.14 C4.23826956,70.1742541 4.62296322,70.2411574 5,70.34 Z" id="Path" fill="#FFC152"></path>
                <path d="M40.75,46.18 C45.63,51.03 48.38,57.77 47.61,62.67 L46.22,64 L44.83,65.39 C44.63,62.39 44.83,55.5 38,48.93 C32.9211881,44.0427398 25.8818741,41.7540414 18.9,42.72 L22.02,39.72 C27.49,37.36 35.28,40.76 40.75,46.18 Z" id="Path" fill="#F9CB64"></path>
            </g>
            <text id="Cap" fill="#016DB6" font-family="ArialMT, Arial" font-size="18" font-weight="normal">
                <tspan x="176.81" y="75.93">Cap</tspan>
            </text>
            <text id="Ink-Chamber" fill="#016DB6" font-family="ArialMT, Arial" font-size="18" font-weight="normal">
                <tspan x="404.2" y="156.93">Ink Chamber</tspan>
            </text>
            <rect id="Rectangle" fill="#1A1A1A" fill-rule="nonzero" x="306.32" y="13.26" width="54.73" height="19" rx="2.02"></rect>
            <rect id="Rectangle" fill="#333333" fill-rule="nonzero" x="306.32" y="13.26" width="54.73" height="15.88" rx="2.02"></rect>
            <polygon id="Path" fill="#FFFFFF" fill-rule="nonzero" points="330.34 13.26 318.1 32.26 316.07 32.26 328.31 13.26"></polygon>
            <polygon id="Path" fill="#E5E5E5" fill-rule="nonzero" points="330.34 13.26 318.1 32.26 317.49 32.26 329.73 13.26"></polygon>
            <polygon id="Path" fill="#FFFFFF" fill-rule="nonzero" points="351.76 13.26 339.52 32.26 337.5 32.26 349.74 13.26"></polygon>
            <polygon id="Path" fill="#E5E5E5" fill-rule="nonzero" points="351.89 13.26 339.65 32.26 339.04 32.26 351.28 13.26"></polygon>
            <path d="M193.32,57.34 L193.32,19.34" id="Path" stroke="#016DB6"></path>
            <text id="Grip" fill="#016DB6" font-family="ArialMT, Arial" font-size="18" font-weight="normal">
                <tspan x="316.82" y="75.93">Grip</tspan>
            </text>
            <path d="M333.82,57.34 L333.82,19.34" id="Path" stroke="#016DB6"></path>
            <text id="Barrel" fill="#016DB6" font-family="ArialMT, Arial" font-size="18" font-weight="normal">
                <tspan x="518.99" y="75.93">Barrel</tspan>
            </text>
            <path d="M543,57.34 L543,19.34" id="Path" stroke="#016DB6"></path>
            <path d="M455.72,139.34 L455.72,101.34" id="Path" stroke="#016DB6"></path>
            <text id="Ballpoint" fill="#016DB6" font-family="ArialMT, Arial" font-size="18" font-weight="normal">
                <tspan x="129.8" y="144.67">Ballpoint</tspan>
            </text>
            <text id="Socket" fill="#016DB6" font-family="ArialMT, Arial" font-size="18" font-weight="normal">
                <tspan x="53.65" y="144.74">Socket</tspan>
            </text>
            <text id="Ball" fill="#016DB6" font-family="ArialMT, Arial" font-size="18" font-weight="normal">
                <tspan x="0.15" y="144.74">Ball</tspan>
            </text>
            <path d="M15.32,126.34 L26.32,101.34" id="Path" stroke="#016DB6"></path>
            <path d="M51.84,83.68 L77.82,125.84" id="Path" stroke="#016DB6"></path>
            <polyline id="Path" stroke="#016DB6" stroke-linecap="round" stroke-linejoin="round" points="98.82 92.84 176.82 122.84 232.82 102.84"></polyline>
        </g>
    </g>
</svg>